name rise43.5482peak65.4966fall89.1036.mot
datacolumns 19
datarows 17
range 1.20665700000000 1.23332700000000
endheader
time	ground_force1_vx	ground_force1_vy	ground_force1_vz	ground_force1_px	ground_force1_py	ground_force1_pz	ground_force2_vx	ground_force2_vy	ground_force2_vz	ground_force2_px	ground_force2_py	ground_force2_pz	ground_torque1_x	ground_torque1_y	ground_torque1_z	ground_torque2_x	ground_torque2_y	ground_torque2_z	
1.20665700000000	-40.01514400000000	794.56423900000004	58.89505100000000	0.07741800000000	0.00000000000000	0.13631900000000	-4.15077400000000	10.67802800000000	1.48702000000000	0.00000000000000	0.00000000000000	0.00000000000000	0.00000000000000	20.90054600000000	0.00000000000000	0.00000000000000	0.13759000000000	0.00000000000000	
1.20832400000000	-40.77931200000000	793.70452000000000	58.80170600000000	0.07652300000000	0.00000000000000	0.13617800000000	-5.54493100000000	15.24641500000000	2.01443000000000	0.00000000000000	0.00000000000000	0.00000000000000	0.00000000000000	20.93427700000000	0.00000000000000	0.00000000000000	0.19261500000000	0.00000000000000	
1.20999500000000	-41.56351500000000	792.75806100000000	58.69372800000000	0.07562800000000	0.00000000000000	0.13603500000000	-7.01696500000000	20.38013100000000	2.57937300000000	0.00000000000000	0.00000000000000	0.00000000000000	0.00000000000000	20.97073700000000	0.00000000000000	0.00000000000000	0.25325300000000	0.00000000000000	
1.21165400000000	-42.36759200000000	791.72149600000000	58.57063300000000	0.07473500000000	0.00000000000000	0.13589000000000	-8.51540800000000	25.98289000000000	3.16402300000000	0.30341100000000	0.00000000000000	-0.06914000000000	0.00000000000000	21.00994100000000	0.00000000000000	0.00000000000000	0.68923700000000	0.00000000000000	
1.21332800000000	-43.19130600000000	790.59137699999997	58.43194800000000	0.07384200000000	0.00000000000000	0.13574400000000	-9.98583300000000	31.94179300000000	3.74914300000000	0.30544300000000	0.00000000000000	-0.06970300000000	0.00000000000000	21.05189100000000	0.00000000000000	0.00000000000000	0.83420600000000	0.00000000000000	
1.21500100000000	-44.03433700000000	789.36418200000003	58.27721400000000	0.07295000000000	0.00000000000000	0.13559600000000	-11.37497400000000	38.13695900000000	4.31554500000000	0.30733000000000	0.00000000000000	-0.07021200000000	0.00000000000000	21.09657300000000	0.00000000000000	0.00000000000000	0.98042900000000	0.00000000000000	
1.21666200000000	-44.89628800000000	788.03631900000005	58.10598500000000	0.07205900000000	0.00000000000000	0.13544600000000	-12.63463200000000	44.45139800000000	4.84548300000000	0.30909500000000	0.00000000000000	-0.07067600000000	0.00000000000000	21.14395900000000	0.00000000000000	0.00000000000000	1.12408100000000	0.00000000000000	
1.21832500000000	-45.77667400000000	786.60413800000003	57.91783500000000	0.07117100000000	0.00000000000000	0.13529400000000	-13.72487200000000	50.77980100000000	5.32383000000000	0.31075400000000	0.00000000000000	-0.07110100000000	0.00000000000000	21.19400300000000	0.00000000000000	0.00000000000000	1.26169000000000	0.00000000000000	
1.21998900000000	-46.67492900000000	785.06392900000003	57.71235400000000	0.07028400000000	0.00000000000000	0.13514100000000	-14.61618300000000	57.03532400000000	5.73889200000000	0.31232300000000	0.00000000000000	-0.07149300000000	0.00000000000000	21.24664400000000	0.00000000000000	0.00000000000000	1.39033000000000	0.00000000000000	
1.22166100000000	-47.59039900000000	783.41194199999995	57.48915600000000	0.06939900000000	0.00000000000000	0.13498600000000	-15.29049600000000	63.15389200000000	6.08284300000000	0.31381200000000	0.00000000000000	-0.07185700000000	0.00000000000000	21.30180300000000	0.00000000000000	0.00000000000000	1.50774900000000	0.00000000000000	
1.22332200000000	-48.52234300000000	781.64438299999995	57.24787600000000	0.06851700000000	0.00000000000000	0.13482900000000	-15.74112100000000	69.09596000000001	6.35176900000000	0.31523100000000	0.00000000000000	-0.07219600000000	0.00000000000000	21.35938300000000	0.00000000000000	0.00000000000000	1.61242000000000	0.00000000000000	
1.22499800000000	-49.46993300000000	779.75743599999998	56.98817500000000	0.06763800000000	0.00000000000000	0.13467000000000	-15.97175700000000	74.84596900000000	6.54538700000000	0.31658800000000	0.00000000000000	-0.07251500000000	0.00000000000000	21.41927200000000	0.00000000000000	0.00000000000000	1.70352100000000	0.00000000000000	
1.22665900000000	-50.43225100000000	777.74726299999998	56.70973800000000	0.06676200000000	0.00000000000000	0.13451000000000	-15.99482100000000	80.40992199999999	6.66651200000000	0.31788800000000	0.00000000000000	-0.07281600000000	0.00000000000000	21.48133700000000	0.00000000000000	0.00000000000000	1.78086600000000	0.00000000000000	
1.22832600000000	-51.40829200000000	775.61001699999997	56.41228300000000	0.06588900000000	0.00000000000000	0.13434800000000	-15.82934300000000	85.81160600000000	6.72036300000000	0.31913800000000	0.00000000000000	-0.07310100000000	0.00000000000000	21.54542600000000	0.00000000000000	0.00000000000000	1.84479300000000	0.00000000000000	
1.22999900000000	-52.39696000000000	773.34185500000001	56.09555400000000	0.06502000000000	0.00000000000000	0.13418400000000	-15.49868300000000	91.08800200000000	6.71379200000000	0.32034000000000	0.00000000000000	-0.07337300000000	0.00000000000000	21.61137200000000	0.00000000000000	0.00000000000000	1.89602800000000	0.00000000000000	
1.23166800000000	-53.39707200000000	770.93894899999998	55.75933000000000	0.06415400000000	0.00000000000000	0.13401800000000	-15.02828700000000	96.28442400000000	6.65450800000000	0.32149900000000	0.00000000000000	-0.07363200000000	0.00000000000000	21.67898600000000	0.00000000000000	0.00000000000000	1.93554400000000	0.00000000000000	
1.23332700000000	-54.40735600000000	768.39749200000006	55.40342100000000	0.06329200000000	0.00000000000000	0.13385100000000	-14.44365200000000	101.44980300000000	6.55037100000000	0.32261800000000	0.00000000000000	-0.07388100000000	0.00000000000000	21.74806100000000	0.00000000000000	0.00000000000000	1.96442000000000	0.00000000000000	
